PathFileType	4	(X/Y/Z)	C:/Users/beibeiliu/ov580/test_trc/User2\sequence.12_training_dense_left.trc
DataRate	CameraRate	NumFrames	NumMarkers	Units	OrigDataRate	OrigDataStartFrame	OrigNumFrames
120	120	11	19	mm	120	25	98
Frame#	Time	ThumbCMC			ThumbMCP			ThumbIP			ThumbTip			IndexMCP			IndexPIP			IndexTip			MiddleMCP			MiddlePIP			MiddleTip			RingMCP			RingPIP			RingTip			PinkyMCP			PinkyPIP			PinkyTip			BackHand1			BackHand2			BackHand3	
		X0	Y0	Z0	X1	Y1	Z1	X2	Y2	Z2	X3	Y3	Z3	X4	Y4	Z4	X5	Y5	Z5	X6	Y6	Z6	X7	Y7	Z7	X8	Y8	Z8	X9	Y9	Z9	X10	Y10	Z10	X11	Y11	Z11	X12	Y12	Z12	X13	Y13	Z13	X14	Y14	Z14	X15	Y15	Z15	X16	Y16	Z16	X17	Y17	Z17	X18	Y18	Z18	
24	0.2	-142.375	-47.1161	-37.2801	-121.374	-66.8213	-55.851	-107.738	-83.6398	-75.8488	-96.1605	-98.4833	-97.355	-158.558	-23.0177	-114.491	-151.325	-22.7681	-142.419	-143.63	-32.4114	-171.802	-193.712	-20.7139	-120.31	-197.536	-21.1077	-155.281	-199.651	-34.8242	-190.82	-222.333	-34.9464	-115.728	-226.101	-39.1144	-144.226	-228.142	-54.464	-170.406	-240.308	-55.547	-101.358	-249.752	-66.3889	-121.547	-250.765	-78.4341	-146.596	-212.482	-28.3307	-59.9584	-216.816	-26.7118	-28.4923	-182.64	-21.499	-44.1915	
25	0.208333	-148.473	-47.9438	-36.6774	-122.918	-66.5106	-53.8103	-104.73	-83.608	-80.0616	-97.075	-98.2783	-98.7713	-161.184	-20.3396	-117.935	-150.478	-21.8787	-146.559	-143.82	-32.7059	-173.175	-193.641	-17.3429	-122.77	-193.382	-18.0855	-157.537	-196.777	-32.4213	-189.228	-222.677	-31.9339	-117.122	-227.48	-37.6568	-147.904	-227.842	-53.8887	-175.3	-239.181	-53.5768	-103.235	-248.979	-65.5376	-126.409	-252.096	-78.6	-148.268	-217.676	-28.9737	-57.333	-213.362	-24.4501	-29.0731	-182.378	-20.9002	-45.6437	
26	0.216667	-147.565	-45.6179	-38.9172	-126.681	-64.3546	-57.9625	-113.412	-79.9835	-83.5193	-107.498	-94.3898	-103.362	-160.956	-17.9979	-112.521	-156.536	-17.0419	-143.427	-149.387	-27.7266	-169.322	-199.419	-14.93	-122.046	-195.682	-14.9775	-154.226	-196.851	-25.6965	-185.821	-220.966	-27.6232	-117.889	-226.122	-33.1184	-147.553	-224.609	-47.7281	-176.291	-243.195	-51.9013	-100.306	-248.037	-63.0369	-128.383	-253.945	-73.5129	-148.835	-221.095	-28.012	-61.3893	-220.737	-24.5151	-24.5014	-183.883	-18.7423	-45.896	
27	0.225	-156.664	-43.6581	-40.0049	-131.958	-62.3486	-57.4788	-116.182	-77.2406	-88.7187	-108.357	-91.545	-107.929	-170.973	-14.1019	-113.662	-157.567	-12.7346	-145.535	-156.75	-24.9232	-171.969	-200.872	-9.65992	-122.963	-205.089	-9.92615	-156.696	-200.344	-22.9589	-190.874	-229.59	-24.8866	-116.196	-233.129	-29.915	-149.073	-232.326	-42.1955	-173.882	-249.88	-49.0529	-101.333	-252.206	-58.8976	-125.787	-255.738	-73.0798	-150.443	-221.863	-25.5875	-59.7043	-225.213	-25.3611	-25.7082	-190.96	-16.5581	-48.4778	
28	0.233333	-156.074	-42.485	-43.9917	-140.01	-61.6232	-60.0383	-122.754	-77.6148	-87.6375	-115.368	-91.399	-107.043	-173.296	-12.4209	-118.182	-165.478	-13.4059	-146.659	-160.025	-29.4378	-177.995	-204.583	-10.0299	-120.569	-206.999	-9.32575	-159.684	-208.851	-24.3436	-187.199	-231.91	-24.4783	-120.569	-234.622	-28.4768	-150.923	-232.897	-43.4082	-175.602	-250.158	-47.9114	-104.231	-258.156	-62.7069	-130.611	-258.763	-76.9553	-153.223	-229.97	-23.7813	-64.2752	-226.502	-23.3836	-26.135	-194.329	-14.3369	-47.2805	
29	0.241667	-157.301	-42.9559	-39.7291	-139.167	-61.7214	-60.203	-115.009	-77.6453	-80.8588	-107.265	-93.8836	-101.132	-175.032	-19.9593	-118.271	-162.44	-22.6812	-147.92	-152.817	-40.7845	-174.792	-209.463	-18.213	-124.902	-207.94	-22.6813	-160.58	-202.746	-44.1084	-191.051	-229.874	-35.241	-120.958	-232.718	-43.3812	-150.489	-230.524	-62.5898	-174.313	-245.797	-58.7254	-105.082	-252.419	-75.8585	-131.575	-246.897	-93.9484	-151.186	-225.296	-29.7012	-61.6237	-226.293	-27.7713	-30.7724	-194.106	-16.734	-48.5508	
30	0.25	-158.9	-35.0479	-40.2486	-128.654	-49.1892	-52.7481	-108.434	-65.6308	-68.6206	-94.7242	-82.2856	-88.5809	-166.029	-28.6786	-121.514	-157.829	-37.1187	-145.382	-142.322	-57.2905	-170.304	-203.547	-40.6736	-124.512	-198.594	-52.0842	-160.961	-187.112	-75.693	-182.173	-220.515	-59.7242	-122.494	-217.873	-76.5199	-149.157	-200.113	-95.0706	-167.659	-232.494	-84.7481	-102.716	-230.259	-104.617	-122.611	-216.211	-126.584	-141.86	-228.13	-44.7413	-67.0046	-230.225	-37.016	-32.7969	-199.844	-20.9669	-52.8774	
31	0.258333	-166.076	-18.7528	-38.8501	-130.239	-23.6569	-46.1046	-104.609	-33.5881	-59.0828	-81.8005	-46.7469	-73.5697	-165.546	-35.2614	-122.923	-146.853	-39.7769	-143.052	-124.055	-55.6174	-159.643	-190.604	-57.5716	-129.424	-175.527	-73.442	-157.037	-151.383	-93.6216	-172.97	-202.341	-83.5975	-116.282	-190.128	-97.2835	-139.011	-164.3	-115.221	-153.572	-208.231	-105.26	-91.9341	-195.04	-129.279	-111.279	-175.366	-141.895	-120.812	-221.371	-59.5833	-68.2847	-230.051	-47.4581	-36.9155	-203.054	-23.5834	-59.4109	
32	0.266667	-181.086	-7.59129	-44.6936	-148.287	-0.803851	-47.5718	-114.744	1.6784	-56.7738	-91.7664	-10.6876	-67.6785	-166.338	-32.1814	-118.943	-142.115	-37.6521	-141.431	-113.967	-46.8004	-151.476	-177.464	-67.4071	-122.862	-154.377	-80.1088	-148.314	-120.435	-89.822	-155.603	-179.8	-89.8524	-111.054	-160.943	-105.474	-128.033	-129.35	-112.866	-135.197	-179.369	-112.856	-81.8483	-155.988	-127.673	-95.9627	-127.694	-135.73	-99.8039	-212.308	-71.9722	-69.4727	-229.614	-58.9922	-41.1357	-212.733	-35.3382	-63.0481	
33	0.275	-202.131	-0.4076	-50.7239	-171.571	17.0784	-54.2895	-137.584	27.7801	-63.7227	-114.756	24.6567	-67.4567	-165.359	-33.4185	-118.704	-140.321	-30.8746	-138.155	-109.163	-26.9652	-143.705	-161.654	-64.2013	-120.238	-133.325	-70.386	-137.814	-99.4451	-67.7299	-140.598	-156.58	-86.294	-103.584	-131.996	-94.2894	-114.473	-97.3862	-89.4568	-117.183	-150.054	-104.573	-71.5709	-122.236	-107.89	-77.9226	-95.5366	-108.34	-77.3326	-200.782	-73.8817	-68.3127	-223.27	-70.4623	-46.4369	-216.939	-43.194	-69.4151	
34	0.283333	-221.702	-8.42235	-58.4484	-203.336	22.5567	-63.5235	-176.784	41.4095	-72.4932	-149.98	47.5797	-78.0683	-170.036	-27.9336	-119.467	-141.471	-17.5688	-138.596	-118.547	-6.55636	-142.854	-151.491	-56.558	-116.755	-118.765	-52.3245	-130.575	-87.0677	-34.8489	-131.937	-140.041	-73.3514	-92.9352	-111.34	-67.9493	-106.378	-81.8248	-52.4033	-106.605	-134.598	-78.5766	-59.0284	-101.748	-73.4801	-65.2922	-78.0322	-61.5762	-67.5068	-189.237	-74.0381	-64.4233	-215.632	-78.2504	-41.1625	-215.381	-53.7441	-70.5557	
